<svg xmlns="http://www.w3.org/2000/svg" viewBox="0 0 100 100">
  <!-- Outer ring -->
  <circle cx="50" cy="50" r="48" stroke="#B8860B" stroke-width="1.5" opacity="0.3" fill="none" />
  <circle cx="50" cy="50" r="44" stroke="#B8860B" stroke-width="0.5" opacity="0.2" fill="none" />
  <!-- Decorative dots -->
  <circle cx="96" cy="50" r="1" fill="#B8860B" opacity="0.4" />
  <circle cx="89.8" cy="73" r="1" fill="#B8860B" opacity="0.4" />
  <circle cx="73" cy="89.8" r="1" fill="#B8860B" opacity="0.4" />
  <circle cx="50" cy="96" r="1" fill="#B8860B" opacity="0.4" />
  <circle cx="27" cy="89.8" r="1" fill="#B8860B" opacity="0.4" />
  <circle cx="10.2" cy="73" r="1" fill="#B8860B" opacity="0.4" />
  <circle cx="4" cy="50" r="1" fill="#B8860B" opacity="0.4" />
  <circle cx="10.2" cy="27" r="1" fill="#B8860B" opacity="0.4" />
  <circle cx="27" cy="10.2" r="1" fill="#B8860B" opacity="0.4" />
  <circle cx="50" cy="4" r="1" fill="#B8860B" opacity="0.4" />
  <circle cx="73" cy="10.2" r="1" fill="#B8860B" opacity="0.4" />
  <circle cx="89.8" cy="27" r="1" fill="#B8860B" opacity="0.4" />
  <!-- Inner ring -->
  <circle cx="50" cy="50" r="38" stroke="#B8860B" stroke-width="1" opacity="0.5" fill="none" />
  <circle cx="50" cy="50" r="34" stroke="#B8860B" stroke-width="0.3" opacity="0.15" stroke-dasharray="2 4" fill="none" />
  <!-- Star -->
  <polygon points="50,18 55,32 70,32 58,42 62,56 50,48 38,56 42,42 30,32 45,32" fill="#B8860B" opacity="0.8" />
  <!-- Radiating lines -->
  <line x1="63" y1="50" x2="86" y2="50" stroke="#B8860B" stroke-width="0.5" opacity="0.3" />
  <line x1="59.2" y1="59.2" x2="75.5" y2="75.5" stroke="#B8860B" stroke-width="0.5" opacity="0.3" />
  <line x1="50" y1="63" x2="50" y2="86" stroke="#B8860B" stroke-width="0.5" opacity="0.3" />
  <line x1="40.8" y1="59.2" x2="24.5" y2="75.5" stroke="#B8860B" stroke-width="0.5" opacity="0.3" />
  <line x1="37" y1="50" x2="14" y2="50" stroke="#B8860B" stroke-width="0.5" opacity="0.3" />
  <line x1="40.8" y1="40.8" x2="24.5" y2="24.5" stroke="#B8860B" stroke-width="0.5" opacity="0.3" />
  <line x1="50" y1="37" x2="50" y2="14" stroke="#B8860B" stroke-width="0.5" opacity="0.3" />
  <line x1="59.2" y1="40.8" x2="75.5" y2="24.5" stroke="#B8860B" stroke-width="0.5" opacity="0.3" />
  <!-- Crosshatch -->
  <line x1="25" y1="25" x2="75" y2="75" stroke="#B8860B" stroke-width="0.3" opacity="0.15" />
  <line x1="25" y1="75" x2="75" y2="25" stroke="#B8860B" stroke-width="0.3" opacity="0.15" />
  <!-- Center ring -->
  <circle cx="50" cy="50" r="8" stroke="#B8860B" stroke-width="0.3" opacity="0.2" fill="none" />
  <!-- Diamond accents -->
  <polygon points="78,48 80,50 78,52 76,50" fill="#B8860B" opacity="0.5" />
  <polygon points="50,76 52,78 50,80 48,78" fill="#B8860B" opacity="0.5" />
  <polygon points="22,48 24,50 22,52 20,50" fill="#B8860B" opacity="0.5" />
  <polygon points="50,20 52,22 50,24 48,22" fill="#B8860B" opacity="0.5" />
</svg>